<svg width="33" height="33" viewBox="0 0 33 33" fill="none" xmlns="http://www.w3.org/2000/svg">
<g clip-path="url(#clip0_5384_57)">
<path d="M29.5558 25.0311C29.0891 26.118 28.5128 27.1545 27.8358 28.1245C26.9305 29.4145 26.1898 30.3071 25.6192 30.8031C24.7345 31.6165 23.7858 32.0338 22.7705 32.0571C22.0418 32.0571 21.1632 31.8498 20.1398 31.4291C19.1132 31.0105 18.1698 30.8025 17.3072 30.8025C16.4025 30.8025 15.4325 31.0105 14.3945 31.4291C13.3552 31.8498 12.5178 32.0691 11.8778 32.0905C10.9045 32.1325 9.93384 31.7038 8.9645 30.8031C8.3465 30.2631 7.57384 29.3391 6.64717 28.0298C5.65317 26.6311 4.83584 25.0098 4.19584 23.1605C3.5105 21.1638 3.1665 19.2298 3.1665 17.3578C3.1665 15.2131 3.62984 13.3638 4.55784 11.8138C5.28784 10.5685 6.25784 9.58714 7.4725 8.86581C8.66416 8.1527 10.0239 7.76895 11.4125 7.75381C12.1858 7.75381 13.1998 7.99314 14.4605 8.46314C15.7172 8.93447 16.5238 9.17381 16.8778 9.17381C17.1418 9.17381 18.0385 8.89381 19.5578 8.33647C20.9952 7.81914 22.2078 7.60514 23.2012 7.68981C25.8938 7.90714 27.9165 8.96847 29.2612 10.8805C26.8538 12.3391 25.6625 14.3825 25.6865 17.0038C25.7078 19.0458 26.4485 20.7451 27.9045 22.0938C28.5645 22.7205 29.3012 23.2045 30.1205 23.5478C29.9487 24.0484 29.7604 24.5431 29.5558 25.0311ZM23.3812 0.733806C23.3812 2.33381 22.7965 3.82847 21.6312 5.21114C20.2245 6.85581 18.5238 7.80581 16.6792 7.65581C16.6544 7.45453 16.6419 7.25193 16.6418 7.04914C16.6418 5.51314 17.3105 3.86914 18.4985 2.52447C19.0918 1.84381 19.8452 1.27781 20.7598 0.826473C21.6732 0.381806 22.5358 0.135806 23.3478 0.0931396C23.3712 0.30714 23.3812 0.52114 23.3812 0.73314V0.733806Z" fill="#F9F8F2"/>
</g>
<defs>
<clipPath id="clip0_5384_57">
<rect width="32" height="32" fill="white" transform="translate(0.5 0.0931396)"/>
</clipPath>
</defs>
</svg>
