<svg width="110" height="80" viewBox="0 0 110 80" fill="none" xmlns="http://www.w3.org/2000/svg">
<g filter="url(#filter0_d_5416_56900)">
<path d="M86 0H24C12.9543 0 4 8.9543 4 20V39C4 50.0457 12.9543 59 24 59H86C97.0457 59 106 50.0457 106 39V20C106 8.9543 97.0457 0 86 0Z" fill="white"/>
<path d="M53.2679 71C54.0377 72.3333 55.9623 72.3333 56.7321 71L63.2272 59.75C63.997 58.4167 63.0348 56.75 61.4952 56.75H48.5048C46.9652 56.75 46.003 58.4167 46.7728 59.75L53.2679 71Z" fill="white"/>
</g>
<defs>
<filter id="filter0_d_5416_56900" x="0" y="0" width="110" height="80" filterUnits="userSpaceOnUse" color-interpolation-filters="sRGB">
<feFlood flood-opacity="0" result="BackgroundImageFix"/>
<feColorMatrix in="SourceAlpha" type="matrix" values="0 0 0 0 0 0 0 0 0 0 0 0 0 0 0 0 0 0 127 0" result="hardAlpha"/>
<feOffset dy="4"/>
<feGaussianBlur stdDeviation="2"/>
<feComposite in2="hardAlpha" operator="out"/>
<feColorMatrix type="matrix" values="0 0 0 0 0 0 0 0 0 0 0 0 0 0 0 0 0 0 0.25 0"/>
<feBlend mode="normal" in2="BackgroundImageFix" result="effect1_dropShadow_5416_56900"/>
<feBlend mode="normal" in="SourceGraphic" in2="effect1_dropShadow_5416_56900" result="shape"/>
</filter>
</defs>
</svg>
