<svg width="385" height="153" viewBox="0 0 385 153" fill="none" xmlns="http://www.w3.org/2000/svg">
<g filter="url(#filter0_d_5391_875)">
<path d="M37.5001 110.5C46 124.5 162 124.5 340 110.5C340.218 105.428 340.228 102.572 340 97.5C175 110.5 50.8333 114.833 51 97.5C51.1667 80.1667 51.4 44.2 51 39C50.6 33.8 24.8333 10.8333 12 0C12 0 27.5 21.5 26.5001 22.5C25.5002 23.5 4 8 4 8C4 8 31 30.5 37.5001 49.5C44.0002 68.5 32.7911 87.1481 37.5001 110.5Z" fill="#F59E32"/>
<path d="M346.667 34.5C338.167 20.5 222.167 20.5 44.1674 34.5C43.9494 39.5721 43.9392 42.4283 44.1674 47.5C209.167 34.5 333.334 30.1667 333.167 47.5C333.001 64.8333 332.767 100.8 333.167 106C333.567 111.2 359.334 134.167 372.167 145C372.167 145 356.667 123.5 357.667 122.5C358.667 121.5 380.167 137 380.167 137C380.167 137 353.167 114.5 346.667 95.5C340.167 76.5 351.376 57.8519 346.667 34.5Z" fill="#F59E32"/>
</g>
<defs>
<filter id="filter0_d_5391_875" x="0" y="0" width="384.167" height="153" filterUnits="userSpaceOnUse" color-interpolation-filters="sRGB">
<feFlood flood-opacity="0" result="BackgroundImageFix"/>
<feColorMatrix in="SourceAlpha" type="matrix" values="0 0 0 0 0 0 0 0 0 0 0 0 0 0 0 0 0 0 127 0" result="hardAlpha"/>
<feOffset dy="4"/>
<feGaussianBlur stdDeviation="2"/>
<feComposite in2="hardAlpha" operator="out"/>
<feColorMatrix type="matrix" values="0 0 0 0 0 0 0 0 0 0 0 0 0 0 0 0 0 0 0.25 0"/>
<feBlend mode="normal" in2="BackgroundImageFix" result="effect1_dropShadow_5391_875"/>
<feBlend mode="normal" in="SourceGraphic" in2="effect1_dropShadow_5391_875" result="shape"/>
</filter>
</defs>
</svg>
