<svg width="31" height="30" viewBox="0 0 31 30" fill="none" xmlns="http://www.w3.org/2000/svg">
<path opacity="0.4" d="M15.7115 27.5245C22.5183 27.5245 28.0363 22.0065 28.0363 15.1997C28.0363 8.39289 22.5183 2.87488 15.7115 2.87488C8.90473 2.87488 3.38672 8.39289 3.38672 15.1997C3.38672 22.0065 8.90473 27.5245 15.7115 27.5245Z" fill="#1F4D91"/>
<path d="M13.961 19.6121C13.7145 19.6121 13.4803 19.5135 13.3077 19.341L9.81982 15.8531C9.4624 15.4956 9.4624 14.9041 9.81982 14.5466C10.1772 14.1892 10.7688 14.1892 11.1263 14.5466L13.961 17.3813L20.2959 11.0464C20.6533 10.689 21.2449 10.689 21.6023 11.0464C21.9598 11.4038 21.9598 11.9954 21.6023 12.3528L14.6142 19.341C14.4416 19.5135 14.2075 19.6121 13.961 19.6121Z" fill="white"/>
</svg>
